<svg width="162" height="41" viewBox="0 0 40 41" fill="none" xmlns="http://www.w3.org/2000/svg">
<path fill-rule="evenodd" clip-rule="evenodd" d="M35.9876 15.5318L33.2441 20.2402L35.9822 24.9394C36.9812 26.6537 36.9812 28.7006 35.9823 30.4148C34.9834 32.1292 33.1942 33.1526 31.1963 33.1526H25.72L23.1875 37.4987C22.1781 39.231 20.3701 40.2653 18.3512 40.2653C16.3322 40.2653 14.5242 39.231 13.5148 37.4987L10.9823 33.1526H5.4951C3.51173 33.1526 1.73552 32.1366 0.743811 30.4347C-0.247901 28.7327 -0.247901 26.7006 0.743811 24.9988L3.4874 20.2903L0.749194 15.5912C-0.249731 13.8769 -0.249731 11.83 0.749194 10.1157C1.74812 8.40136 3.53729 7.37791 5.53514 7.37791H11.0115L13.544 3.0319C14.5534 1.29964 16.3616 0.265259 18.3804 0.265259C20.3994 0.265259 22.2072 1.29954 23.2167 3.0319L25.7491 7.37791H31.2364C33.2198 7.37791 34.996 8.394 35.9877 10.0959C36.9794 11.7978 36.9794 13.8299 35.9876 15.5318ZM18.3804 1.46321C16.7985 1.46316 15.3819 2.27351 14.591 3.63086L12.4076 7.37791H24.353L22.1696 3.63086C21.3788 2.27351 19.9622 1.46321 18.3804 1.46321ZM25.605 30.954L25.5464 31.0547L25.5379 31.0693L25.3971 31.311L24.6487 32.5954L24.5198 32.8165L22.9647 35.4854L22.4958 36.2901L22.1655 36.8569L22.1531 36.8597L22.1457 36.8724C21.3548 38.2298 19.912 38.6208 18.3302 38.6207C16.7506 38.6207 15.3621 38.232 14.5706 36.8782L14.5456 36.8719L13.7429 35.4943L13.5418 35.1493L4.88344 20.2903L6.45393 17.5953L6.45414 17.5962L9.22427 12.8446L9.22233 12.8443L9.53677 12.3047L9.53882 12.3051L11.7129 8.57581L25.0516 8.57117L31.848 20.2403L25.605 30.954ZM34.9353 29.8159C34.1548 31.1551 32.7571 31.9547 31.1963 31.9547H26.418L32.546 21.4381L34.9352 25.5383C35.7156 26.8776 35.7156 28.4767 34.9353 29.8159ZM1.79084 29.8357C2.56402 31.1626 3.94876 31.9547 5.49508 31.9547H10.2843L4.18542 21.4883L1.79084 25.5976C1.0177 26.9245 1.0177 28.5089 1.79084 29.8357ZM1.79629 14.9923C1.01589 13.653 1.01589 12.0539 1.79629 10.7146C2.57663 9.37537 3.97434 8.57579 5.53514 8.57579H10.3135L4.18544 19.0924L1.79629 14.9923ZM31.2363 8.57579C32.7827 8.57579 34.1675 9.36796 34.9406 10.6949C35.7138 12.0216 35.7138 13.606 34.9406 14.9329L32.546 19.0424L26.4472 8.57579H31.2363Z" fill="#03C4E8"/>
<path d="M24.8834 22.1517L22.8237 21.6989L24.4257 23.963V30.9819L29.5005 26.4536L29.9182 18.7555L27.4008 19.6611L24.8834 22.1517Z" fill="#03C4E8"/>
<path d="M12.0675 22.1517L14.1272 21.6989L12.5252 23.963V30.9819L7.45046 26.4536L7.03271 18.7555L9.55011 19.6611L12.0675 22.1517Z" fill="#03C4E8"/>
<path fill-rule="evenodd" clip-rule="evenodd" d="M13.2118 24.4159L15.0426 21.699L16.1869 22.3782H20.764L21.9083 21.699L23.7391 24.4159V34.6046L21.5995 38.645H14.9336L13.2118 34.6046V24.4159Z" fill="#03C4E8"/>
<path d="M24.4257 35.2837L27.4008 32.3404V29.397L24.4257 31.8875V35.2837Z" fill="#03C4E8"/>
<path d="M12.5253 35.2837L9.55016 32.3404V29.397L12.5253 31.8875V35.2837Z" fill="#03C4E8"/>
<path fill-rule="evenodd" clip-rule="evenodd" d="M18.0178 8.56689H15.5004L13.6696 12.8688L16.6447 21.4725H20.5352L23.2814 12.8688L21.4506 8.56689H18.9332V21.4725H18.0178V8.56689Z" fill="#03C4E8"/>
<path d="M16.6446 21.4724L6.80391 17.8498L5.43079 12.1895L13.8984 12.8687L16.8735 21.4724H16.6446Z" fill="#03C4E8"/>
<path d="M20.5352 21.4724L30.3759 17.8498L31.749 12.1895L23.0526 12.8687L20.3063 21.4724H20.5352Z" fill="#03C4E8"/>
<path d="M23.7391 12.1895L28.1273 11.7367L25.341 8.56689H22.1371L23.7391 12.1895Z" fill="#03C4E8"/>
<path d="M13.2119 12.1895L8.82367 11.7367L11.6099 8.56689H14.8138L13.2119 12.1895Z" fill="#03C4E8"/>
</svg>
