<svg viewBox="0 0 120 120" xml:space="preserve" xmlns="http://www.w3.org/2000/svg">
  <g stroke-width="0"/>
  <g stroke-linecap="round" stroke-linejoin="round"/>
  <path d="M48.1 91.5H72c.6 0 1-.4 1.1-1l12.1-75.4c.2-1.1-1.2-1.8-2-1-3.2 3.8-9.7 9.7-20.2 14.1-5.1 2.1-18.2 5-22 5.8-.6.1-1 .7-.9 1.3L47 90.5c0 .6.5 1 1.1 1" style="fill:#5497ff"/>
  <path d="M86.8 94.1h-3.7V91c0-1-.8-1.8-1.8-1.8H38.7c-1 0-1.8.8-1.8 1.8v3.1h-3.7c-1 0-1.8.8-1.8 1.8v8.5c0 1 .8 1.8 1.8 1.8h53.7c1 0 1.8-.8 1.8-1.8V96c0-1.1-.9-1.9-1.9-1.9" style="fill:#dbb68f"/>
  <path d="m61.6 42.5 2.5 5c.1.2.2.3.4.3l5.5.8c.5.1.7.6.3 1l-4 3.9c-.1.1-.2.3-.2.5l.9 5.5c.1.5-.4.8-.8.6l-5-2.6c-.2-.1-.4-.1-.5 0l-5 2.6c-.4.2-.9-.1-.8-.6L56 54c0-.2 0-.4-.2-.5l-4-3.9c-.3-.3-.2-.9.3-1l5.5-.8c.2 0 .3-.1.4-.3l2.5-5c.3-.5.9-.5 1.1 0" style="fill:#ffc54d"/>
  <path d="M67.9 69.1H54.3c-.7 0-1.3.6-1.3 1.3s.6 1.3 1.3 1.3h13.6c.7 0 1.3-.6 1.3-1.3s-.6-1.3-1.3-1.3m-2.6 5.2h-8.5c-.7 0-1.3.6-1.3 1.3s.6 1.3 1.3 1.3h8.5c.7 0 1.3-.6 1.3-1.3.1-.7-.5-1.3-1.3-1.3" style="fill:#fff"/>
</svg>
